HIERARCHY
ROOT RootJoint
{
    OFFSET   0.000000   0.000000   0.000000
    CHANNELS 6 Xposition Yposition Zposition Xrotation Yrotation Zrotation
    JOINT pelvis_lowerback
    {
        OFFSET   0.000000   0.093605   0.000000
        CHANNELS 3 Xrotation Yrotation Zrotation
        JOINT lowerback_torso
        {
            OFFSET   0.000000   0.100000   0.000000
            CHANNELS 3 Xrotation Yrotation Zrotation
            JOINT torso_head
            {
                OFFSET   0.000000   0.282350   0.000000
                CHANNELS 3 Xrotation Yrotation Zrotation
                End Site
                {
                    OFFSET   0.000000   0.192650   0.000000
                }
            }
            JOINT rTorso_Clavicle
            {
                OFFSET  -0.001000   0.157500   0.000000
                CHANNELS 3 Xrotation Yrotation Zrotation
                JOINT rShoulder
                {
                    OFFSET  -0.117647   0.000000   0.000000
                    CHANNELS 3 Xrotation Yrotation Zrotation
                    JOINT rElbow
                    {
                        OFFSET  -0.245000   0.000000   0.000000
                        CHANNELS 3 Xrotation Yrotation Zrotation
                        JOINT rWrist
                        {
                            OFFSET  -0.240000   0.000000   0.000000
                            CHANNELS 3 Xrotation Yrotation Zrotation
                            End Site
                            {
                                OFFSET  -0.116353  -0.002500   0.000000
                            }
                        }
                    }
                }
            }
            JOINT lTorso_Clavicle
            {
                OFFSET   0.001000   0.157500   0.000000
                CHANNELS 3 Xrotation Yrotation Zrotation
                JOINT lShoulder
                {
                    OFFSET   0.117647   0.000000   0.000000
                    CHANNELS 3 Xrotation Yrotation Zrotation
                    JOINT lElbow
                    {
                        OFFSET   0.245000   0.000000   0.000000
                        CHANNELS 3 Xrotation Yrotation Zrotation
                        JOINT lWrist
                        {
                            OFFSET   0.240000   0.000000   0.000000
                            CHANNELS 3 Xrotation Yrotation Zrotation
                            End Site
                            {
                                OFFSET   0.116353  -0.002500   0.000000
                            }
                        }
                    }
                }
            }
        }
    }
    JOINT rHip
    {
        OFFSET  -0.100000  -0.051395   0.000000
        CHANNELS 3 Xrotation Yrotation Zrotation
        JOINT rKnee
        {
            OFFSET   0.000000  -0.410000   0.000000
            CHANNELS 3 Xrotation Yrotation Zrotation
            JOINT rAnkle
            {
                OFFSET   0.000000  -0.390000   0.000000
                CHANNELS 3 Xrotation Yrotation Zrotation
                JOINT rToeJoint
                {
                    OFFSET   0.000000  -0.050000   0.130000
                    CHANNELS 3 Xrotation Yrotation Zrotation
                    End Site
                    {
                        OFFSET  -0.010000   0.002000   0.060000
                    }
                }
            }
        }
    }
    JOINT lHip
    {
        OFFSET   0.100000  -0.051395   0.000000
        CHANNELS 3 Xrotation Yrotation Zrotation
        JOINT lKnee
        {
            OFFSET   0.000000  -0.410000   0.000000
            CHANNELS 3 Xrotation Yrotation Zrotation
            JOINT lAnkle
            {
                OFFSET   0.000000  -0.390000   0.000000
                CHANNELS 3 Xrotation Yrotation Zrotation
                JOINT lToeJoint
                {
                    OFFSET   0.000000  -0.050000   0.130000
                    CHANNELS 3 Xrotation Yrotation Zrotation
                    End Site
                    {
                        OFFSET   0.010000   0.002000   0.060000
                    }
                }
            }
        }
    }
}
MOTION
Frames: 15
Frame Time:   0.008333
 -2.495392   0.907804   4.576134   1.718858   9.398996  -3.852771   0.408256  -0.621752  -0.280853   1.446342  -0.650386   5.902592  -0.140490   1.303210   1.973591   3.845886  -4.249966   1.201187   5.025287   9.047175  59.729370 -179.992662  89.975756 179.990783  -3.367640   3.402169  -5.823619   4.470249   4.260495   2.149873  10.966028 -13.977824 -53.407006 -179.991192 -70.752459 -179.990213  -1.352293  -5.957370   3.919926 -14.638868  -1.444754 -11.626496  52.763647   0.004268   0.030385   3.390315  -8.634498   4.594775  -9.604041   0.009012   0.011223  -8.734102  -0.568394   0.492737  24.153349  -0.007422  -0.007536 -18.492335   7.062575  11.516636  -0.134028   0.000506   0.000478
 -2.492773   0.908418   4.580008   1.583794   9.809865  -3.865969   0.520420  -0.894084  -0.278285   1.481492  -0.782324   5.888746  -0.146395   1.310379   1.962077   3.980620  -4.405928   1.218893   5.367532   8.833523  59.697607   0.107098  89.980047  -0.108605  -3.399663   3.289336  -5.759275   4.307587   3.917656   2.051496  10.025551 -14.255107 -53.661256 -179.992096 -70.530280 -179.991410  -1.413257  -5.912223   3.992731 -15.232197  -1.440617 -11.109349  53.543767   0.002694   0.028544   2.616745  -8.832297   4.598360  -8.806430   0.005043   0.012006  -7.973505  -0.673475   0.408718  23.421903  -0.006990  -0.007654 -18.143444   6.628344  11.389705   0.040651   0.000703   0.000089
 -2.490300   0.909109   4.583868   1.484891  10.257587  -3.870625   0.629980  -1.193200  -0.308175   1.503700  -0.954284   5.860843  -0.155155   1.321561   1.955623   4.127654  -4.571957   1.236174   5.706385   8.630304  59.676596   0.072238  89.953362  -0.073442  -3.422963   3.251032  -5.668903   4.110063   3.549613   1.952384   9.095457 -14.536101 -53.913764 -179.993052 -70.312480 -179.992650  -1.468027  -5.920106   4.110443 -15.862424  -1.447374 -10.564999  54.144610   0.001581   0.026449   1.881953  -9.015155   4.598729  -8.114903   0.001954   0.012804  -7.224226  -0.741708   0.341371  22.665516  -0.006674  -0.008343 -18.019922   6.268413  11.266995   0.233326   0.000889   0.000073
 -2.487913   0.909746   4.587737   1.396094  10.713272  -3.868861   0.747095  -1.505602  -0.348452   1.527718  -1.150587   5.817202  -0.163102   1.332235   1.946786   4.271126  -4.736339   1.242803   6.028805   8.436918  59.655995   0.062812  89.931761  -0.063769  -3.443471   3.233855  -5.577662   3.903501   3.179318   1.861536   8.201576 -14.809172 -54.157271 -179.994074 -70.101807 -179.993921  -1.517364  -5.977747   4.235445 -16.522560  -1.456531 -10.010742  54.661880   0.000748   0.024397   1.193339  -9.184876   4.597196  -7.486320  -0.000420   0.013421  -6.483818  -0.820834   0.276064  21.903720  -0.006363  -0.008918 -17.885280   5.909609  11.149142   0.350191   0.000895   0.000057
 -2.485579   0.910279   4.591648   1.307374  11.165994  -3.858468   0.869641  -1.821606  -0.396406   1.557867  -1.358710   5.762738  -0.169058   1.341820   1.936236   4.408244  -4.897836   1.240176   6.333308   8.251575  59.633222   0.057231  89.912505  -0.057987  -3.462538   3.221618  -5.499149   3.699643   2.818375   1.777779   7.353641 -15.068930 -54.389887 -179.995058 -69.901338 -179.995116  -1.562837  -6.062122   4.351261 -17.196566  -1.468590  -9.461497  55.120997   0.000123   0.022421   0.549151  -9.342680   4.594323  -6.913011  -0.002186   0.013757  -5.753585  -0.908135   0.209942  21.168692  -0.006016  -0.009246 -17.762970   5.560881  11.038355   0.438123   0.000845   0.000045
 -2.483279   0.910689   4.595623   1.216594  11.611723  -3.838232   0.993181  -2.134345  -0.450349   1.593342  -1.570584   5.700686  -0.173214   1.350356   1.924665   4.538983  -5.056003   1.231047   6.620625   8.073693  59.608620   0.052654  89.894479  -0.053247  -3.480699   3.208868  -5.436535   3.504299   2.472823   1.698952   6.555008 -15.313165 -54.611802 -179.995922 -69.712446 -179.996157  -1.605610  -6.157509   4.453668 -17.872426  -1.483835  -8.927095  55.532092  -0.000331   0.020523  -0.053130  -9.489557   4.590472  -6.389491  -0.003445   0.013815  -5.035040  -1.001031   0.141178  20.472524  -0.005640  -0.009334 -17.662723   5.223867  10.933540   0.502897   0.000765   0.000035
 -2.480998   0.910975   4.599674   1.124691  12.049333  -3.808288   1.113823  -2.439094  -0.508445   1.631917  -1.780862   5.633611  -0.176134   1.357972   1.912535   4.663519  -5.210056   1.217862   6.891556   7.903350  59.583121   0.048274  89.877213  -0.048736  -3.498204   3.193718  -5.388558   3.320179   2.145543   1.623485   5.805917 -15.541267 -54.823550 -179.996633 -69.535419 -179.997011  -1.646369  -6.255398   4.542832 -18.541665  -1.502089  -8.413278  55.901490  -0.000644   0.018711  -0.616069  -9.626364   4.585905  -5.911120  -0.004290   0.013632  -4.329845  -1.098427   0.069125  19.818719  -0.005250  -0.009226 -17.588155   4.898450  10.833594   0.549156   0.000672   0.000027
 -2.478826   0.911403   4.603779   1.146349  12.479117  -3.900671   1.156088  -2.707770  -0.472771   1.625477  -1.980171   5.578340  -0.236407   1.392956   1.932131   4.764027  -5.457887   1.256670   7.282284   7.648738  59.501557 -179.831358  89.801833 179.830802  -3.528823   3.038475  -5.290798   3.127011   1.777892   1.519366   4.967706 -15.862536 -55.087662 -179.997287 -69.511520 -179.997628  -1.678297  -6.323980   4.598139 -19.092155  -1.551894  -7.767061  55.284900   0.000155   0.010857  -1.241124  -9.765101   4.692946  -5.473205  -0.005773   0.013645  -3.741904  -1.140139   0.136674  19.169613  -0.004845  -0.009534 -17.487434   4.510809  10.604115   0.557969   0.000557   0.000021
 -2.476707   0.911738   4.607851   1.194390  12.859763  -3.981510   1.205059  -2.973022  -0.464012   1.602483  -2.191107   5.513345  -0.299952   1.430435   1.955891   4.860433  -5.702481   1.282052   7.648385   7.411306  59.432418 -179.861801  89.475220 179.861127  -3.547411   3.020166  -5.186165   2.920528   1.404185   1.423417   4.154961 -16.171965 -55.343059 -179.997839 -69.493693 -179.998143  -1.711153  -6.361488   4.676863 -19.674379  -1.587598  -7.150626  54.470378   0.001240   0.003542  -1.836558  -9.893650   4.791317  -5.081410  -0.006857   0.013332  -3.189261  -1.164756   0.189577  18.536716  -0.004444  -0.009553 -17.396080   4.155308  10.386241   0.556386   0.000442   0.000017
 -2.474625   0.911955   4.611945   1.239279  13.207518  -4.045518   1.267895  -3.243583  -0.475074   1.584946  -2.410563   5.436976  -0.359122   1.465270   1.976823   4.949276  -5.934662   1.299589   7.988716   7.188065  59.367684 -179.872735  89.165440 179.871939  -3.561445   3.045624  -5.091816   2.714234   1.037984   1.335170   3.380347 -16.464960 -55.585733 -179.998300 -69.476331 -179.998575  -1.742346  -6.401475   4.757625 -20.278950  -1.618936  -6.571188  53.632974   0.002357  -0.002132  -2.395582 -10.013937   4.882378  -4.724674  -0.007568   0.012780  -2.646941  -1.182524   0.227462  17.939113  -0.004046  -0.009319 -17.328973   3.827359  10.180725   0.547164   0.000336   0.000014
 -2.472572   0.912059   4.616103   1.275597  13.532608  -4.096992   1.339071  -3.516593  -0.498191   1.576377  -2.634452   5.353110  -0.412905   1.497145   1.994578   5.033375  -6.156778   1.311811   8.307455   6.976030  59.305793 -179.881897  88.875613 179.880995  -3.573907   3.079844  -5.012774   2.515233   0.685217   1.251039   2.648485 -16.740924 -55.817233 -179.998679 -69.459673 -179.998931  -1.772023  -6.445546   4.827318 -20.891619  -1.650362  -6.024919  52.819268   0.003358  -0.006251  -2.918591 -10.126634   4.966909  -4.399519  -0.007952   0.012073  -2.108251  -1.198427   0.256289  17.379935  -0.003661  -0.008919 -17.290137   3.521472   9.985875   0.532195   0.000242   0.000012
 -2.470539   0.912059   4.620345   1.304845  13.841140  -4.139514   1.412969  -3.788010  -0.528731   1.574876  -2.858858   5.265158  -0.461989   1.526333   2.009742   5.114515  -6.370275   1.320307   8.607482   6.773919  59.246735 -179.891091  88.605641 179.890108  -3.585818   3.111472  -4.948603   2.326795   0.349023   1.169322   1.960374 -16.999777 -56.038661 -179.998985 -69.443961 -179.999219  -1.800551  -6.491076   4.882876 -21.502489  -1.683297  -5.509348  52.042831   0.004172  -0.009104  -3.407359 -10.232243   5.045460  -4.103141  -0.008067   0.011275  -1.572557  -1.215274   0.279660  16.857171  -0.003298  -0.008421 -17.279374   3.233928   9.800368   0.512943   0.000161   0.000010
 -2.468521   0.911964   4.624678   1.330208  14.137174  -4.175745   1.485579  -4.054344  -0.563683   1.577715  -3.080432   5.175713  -0.507220   1.553127   2.022842   5.193146  -6.575352   1.326216   8.890278   6.581381  59.190753 -179.900496  88.354496 179.899460  -3.597490   3.137432  -4.897212   2.150093   0.030873   1.089618   1.315180 -17.241773 -56.250472 -179.999228 -69.429240 -179.999445  -1.828110  -6.536345   4.925511 -22.104819  -1.717991  -5.023182  51.307447   0.004776  -0.010972  -3.863921 -10.331217   5.118488  -3.832982  -0.007971   0.010436  -1.041265  -1.234756   0.299699  16.367684  -0.002963  -0.007875 -17.295064   2.961974   9.623225   0.490561   0.000092   0.000009
 -2.466494   0.911918   4.629161   1.427470  14.400744  -4.280483   1.477026  -4.275566  -0.534606   1.550188  -3.331170   5.079646  -0.568443   1.600726   2.031370   5.232658  -6.832404   1.369212   9.242962   6.335059  59.108164 -179.891515  87.918676 179.890389  -3.602555   3.061784  -4.790266   1.989559  -0.316195   0.988308   0.715221 -17.588497 -56.441102 -179.997914 -69.688943 -179.997515  -1.819720  -6.693570   4.992761 -22.478843  -1.784045  -4.484686  49.516640   0.007577  -0.017448  -4.279860 -10.391188   5.289163  -3.575569  -0.008355   0.009876  -0.568038  -1.180301   0.394162  15.869240  -0.002665  -0.007679 -17.296401   2.645492   9.333655   0.443312  -0.000039   0.000009
 -2.464457   0.911723   4.633638   1.546748  14.596854  -4.350820   1.461994  -4.490908  -0.544886   1.502028  -3.584446   4.968442  -0.634733   1.647761   2.041243   5.267023  -7.080207   1.402872   9.568919   6.106354  59.037839 -179.886840  87.492721 179.885643  -3.600776   3.080715  -4.686776   1.835382  -0.660173   0.895191   0.149997 -17.915522 -56.619317 -179.996461 -69.953241 -179.995536  -1.821494  -6.730915   5.036574 -22.863519  -1.833692  -4.000645  47.589273   0.010848  -0.021941  -4.677976 -10.445985   5.448220  -3.332874  -0.008622   0.009228  -0.127827  -1.099670   0.440578  15.397952  -0.002394  -0.007275 -17.318808   2.369550   9.054818   0.393178  -0.000150   0.000009
